<svg xmlns="http://www.w3.org/2000/svg" width="120" height="40" viewBox="0 0 120 40" role="img" aria-label="Get it on Google Play">
  <defs>
    <linearGradient id="pl-blue" x1="0" y1="0" x2="1" y2="1">
      <stop offset="0" stop-color="#00A0FF"/>
      <stop offset="1" stop-color="#00E3FF"/>
    </linearGradient>
    <linearGradient id="pl-yellow" x1="0" y1="0" x2="1" y2="0">
      <stop offset="0" stop-color="#FFE000"/>
      <stop offset="1" stop-color="#FF9C00"/>
    </linearGradient>
    <linearGradient id="pl-red" x1="0" y1="0" x2="1" y2="1">
      <stop offset="0" stop-color="#FF3A44"/>
      <stop offset="1" stop-color="#C31162"/>
    </linearGradient>
    <linearGradient id="pl-green" x1="0" y1="1" x2="1" y2="0">
      <stop offset="0" stop-color="#32A071"/>
      <stop offset="1" stop-color="#00F076"/>
    </linearGradient>
  </defs>
  <rect x="0.5" y="0.5" width="119" height="39" rx="7.5" fill="#000000" stroke="#A6A6A6"/>
  <g transform="translate(10, 8)">
    <path d="M1.4 0.9 C1 1.3 0.8 1.9 0.8 2.6 L0.8 21.4 C0.8 22.1 1 22.7 1.4 23.1 L12.2 12 Z" fill="url(#pl-blue)"/>
    <path d="M1.4 0.9 C1.9 0.5 2.6 0.5 3.2 0.9 L15.9 8.2 L12.2 12 Z" fill="url(#pl-green)"/>
    <path d="M1.4 23.1 C1.9 23.5 2.6 23.5 3.2 23.1 L15.9 15.8 L12.2 12 Z" fill="url(#pl-red)"/>
    <path d="M15.9 8.2 L18.6 9.8 C19.7 10.4 19.7 13.6 18.6 14.2 L15.9 15.8 L12.2 12 Z" fill="url(#pl-yellow)"/>
  </g>
  <text x="40" y="16.5" fill="#FFFFFF" font-family="'Helvetica Neue', Helvetica, Arial, sans-serif" font-size="7.5" letter-spacing="0.8">GET IT ON</text>
  <text x="40" y="30" fill="#FFFFFF" font-family="'Helvetica Neue', Helvetica, Arial, sans-serif" font-size="15" font-weight="600" letter-spacing="-0.2">Google Play</text>
</svg>
